# xmcd
#
# Track frame offsets:
#	150
#	15607
#	28569
#	39585
#	50967
#	64580
#	79380
#	93230
#	100940
#	109450
#	120237
#	134630
#	139977
#	143120
#
# Disc length: 2141 seconds
#
# Revision: 0
# Processed by: cddbd v1.5.1PL2 Copyright (c) Steve Scherf et al.
# Submitted via: EasyCDDAExtractor 9.0.0.1
#
DISCID=c9085b0e
DTITLE=The Skreppers - Call Of The Trash
DYEAR=2004
DGENRE=Psychedelic Rock
TTITLE0=Doktor Feelgood
TTITLE1=Let's Die Together Sheena
TTITLE2=Jesus Saved My Sexlife
TTITLE3=Does She Do It Like He Dances
TTITLE4=Shake It Baby
TTITLE5=Wildweed
TTITLE6=Mambo Limbo Rocket
TTITLE7=Simsala Bimsala
TTITLE8=Hot Pants
TTITLE9=Highway Overhead
TTITLE10=Make Love Muslim Girl
TTITLE11=My Girlfriend Is A Prostitute
TTITLE12=Cold Voice
TTITLE13=Betrayer
EXTD=
EXTT0=
EXTT1=
EXTT2=
EXTT3=
EXTT4=
EXTT5=
EXTT6=
EXTT7=
EXTT8=
EXTT9=
EXTT10=
EXTT11=
EXTT12=
EXTT13=
PLAYORDER=
